<?xml version="1.0" encoding="UTF-8"?>
<svg id="Layer_2" data-name="Layer 2" xmlns="http://www.w3.org/2000/svg" viewBox="0 0 100 100">
  <defs>
    <style>
      .cls-1 {
        fill: #337858;
        stroke-width: 0px;
      }
    </style>
  </defs>
  <path class="cls-1" d="M75.8,27.04c.14-.23.22-.49.22-.78v-7.38c0-.83-.67-1.5-1.5-1.5H25.9c-.83,0-1.5.67-1.5,1.5v7.23c-3.51,15.86-3.51,31.94,0,47.8v7.23c0,.83.67,1.5,1.5,1.5h48.62c.83,0,1.5-.67,1.5-1.5v-7.38c0-.29-.08-.55-.22-.78,3.24-15.24,3.24-30.68,0-45.93ZM27.11,27.76h45.79c3.13,14.77,3.13,29.72,0,44.49H27.11c-3.13-14.77-3.13-29.72,0-44.49ZM27.4,20.38h45.62v4.38H27.4v-4.38ZM73.02,79.62H27.4v-4.38h45.62v4.38Z"/>
  <path class="cls-1" d="M67.45,38.32c-.33-.1-8.08-2.45-13.32,1.25-2.01,1.42-3.3,3.48-4.13,5.51-.83-2.03-2.12-4.09-4.13-5.51-5.24-3.7-12.99-1.35-13.32-1.25-.65.2-1.08.81-1.05,1.49.01.34.39,8.44,5.63,12.14,2.29,1.61,5.05,2.08,7.47,2.08,1.51,0,2.87-.18,3.91-.37v7.36c0,.83.67,1.5,1.5,1.5s1.5-.67,1.5-1.5v-7.36c1.04.19,2.4.37,3.91.37,2.42,0,5.18-.46,7.47-2.08,5.24-3.7,5.62-11.79,5.63-12.14.03-.68-.41-1.29-1.05-1.49ZM38.86,49.49h0c-3-2.12-3.95-6.49-4.24-8.6,2.09-.44,6.51-1,9.52,1.12,3,2.12,3.95,6.48,4.24,8.6-2.09.43-6.52,1-9.52-1.12ZM61.14,49.49c-3,2.12-7.43,1.55-9.52,1.12.29-2.11,1.23-6.47,4.24-8.6,3-2.12,7.43-1.55,9.52-1.12-.29,2.12-1.24,6.48-4.24,8.6Z"/>
</svg>