<svg xmlns="http://www.w3.org/2000/svg" xmlns:xlink="http://www.w3.org/1999/xlink" version="1.1" width="256" height="256" viewBox="0 0 256 256" xml:space="preserve">

<defs>
</defs>
<g style="stroke: none; stroke-width: 0; stroke-dasharray: none; stroke-linecap: butt; stroke-linejoin: miter; stroke-miterlimit: 10; fill: none; fill-rule: nonzero; opacity: 1;" transform="translate(1.4065934065934016 1.4065934065934016) scale(2.81 2.81)" >
	<path d="M 45.272 67.746 c -11.512 0 -20.877 -9.365 -20.877 -20.877 c 0 -11.457 9.036 -39.507 20.877 -39.507 s 20.876 28.05 20.876 39.507 C 66.148 58.381 56.783 67.746 45.272 67.746 z M 45.272 9.362 c -9.75 0 -18.877 25.79 -18.877 37.507 c 0 10.409 8.468 18.877 18.877 18.877 s 18.876 -8.468 18.876 -18.877 C 64.148 35.152 55.022 9.362 45.272 9.362 z" style="stroke: none; stroke-width: 1; stroke-dasharray: none; stroke-linecap: butt; stroke-linejoin: miter; stroke-miterlimit: 10; fill: #709D31; fill-rule: nonzero; opacity: 1;" transform=" matrix(1 0 0 1 0 0) " stroke-linecap="round" />
	<path d="M 45.312 82.638 c -0.552 0 -1 -0.447 -1 -1 v -44.13 c 0 -0.552 0.448 -1 1 -1 s 1 0.448 1 1 v 44.13 C 46.313 82.19 45.864 82.638 45.312 82.638 z" style="stroke: none; stroke-width: 1; stroke-dasharray: none; stroke-linecap: butt; stroke-linejoin: miter; stroke-miterlimit: 10; fill: #709D31; fill-rule: nonzero; opacity: 1;" transform=" matrix(1 0 0 1 0 0) " stroke-linecap="round" />
	<path d="M 45.313 47.301 c -0.27 0 -0.538 -0.107 -0.734 -0.321 c -0.375 -0.405 -0.351 -1.038 0.055 -1.413 l 5.981 -5.532 c 0.405 -0.375 1.036 -0.351 1.413 0.055 c 0.375 0.406 0.35 1.038 -0.056 1.413 l -5.98 5.533 C 45.799 47.213 45.555 47.301 45.313 47.301 z" style="stroke: none; stroke-width: 1; stroke-dasharray: none; stroke-linecap: butt; stroke-linejoin: miter; stroke-miterlimit: 10; fill: #709D31; fill-rule: nonzero; opacity: 1;" transform=" matrix(1 0 0 1 0 0) " stroke-linecap="round" />
	<path d="M 45.312 55.802 c -0.243 0 -0.487 -0.088 -0.679 -0.266 l -8.354 -7.726 c -0.405 -0.375 -0.43 -1.008 -0.055 -1.413 c 0.375 -0.406 1.008 -0.431 1.414 -0.056 l 8.354 7.726 c 0.405 0.375 0.43 1.008 0.055 1.413 C 45.849 55.693 45.581 55.802 45.312 55.802 z" style="stroke: none; stroke-width: 1; stroke-dasharray: none; stroke-linecap: butt; stroke-linejoin: miter; stroke-miterlimit: 10; fill: #709D31; fill-rule: nonzero; opacity: 1;" transform=" matrix(1 0 0 1 0 0) " stroke-linecap="round" />
	<path d="M 73.879 71.309 c -6.679 0 -12.744 -4.198 -15.094 -10.448 c -0.195 -0.517 0.066 -1.093 0.584 -1.287 c 0.514 -0.195 1.093 0.066 1.287 0.584 c 2.059 5.474 7.372 9.151 13.223 9.151 C 81.665 69.309 88 62.974 88 55.188 s -6.335 -14.121 -14.121 -14.121 c -3.054 0 -5.961 0.959 -8.407 2.774 c -0.443 0.328 -1.069 0.236 -1.398 -0.208 c -0.329 -0.443 -0.236 -1.07 0.207 -1.399 c 2.793 -2.072 6.112 -3.168 9.599 -3.168 c 8.89 0 16.121 7.231 16.121 16.121 S 82.769 71.309 73.879 71.309 z" style="stroke: none; stroke-width: 1; stroke-dasharray: none; stroke-linecap: butt; stroke-linejoin: miter; stroke-miterlimit: 10; fill: #709D31; fill-rule: nonzero; opacity: 1;" transform=" matrix(1 0 0 1 0 0) " stroke-linecap="round" />
	<path d="M 73.909 82.638 c -0.553 0 -1 -0.447 -1 -1 V 51.846 c 0 -0.553 0.447 -1 1 -1 s 1 0.447 1 1 v 29.792 C 74.909 82.19 74.462 82.638 73.909 82.638 z" style="stroke: none; stroke-width: 1; stroke-dasharray: none; stroke-linecap: butt; stroke-linejoin: miter; stroke-miterlimit: 10; fill: #709D31; fill-rule: nonzero; opacity: 1;" transform=" matrix(1 0 0 1 0 0) " stroke-linecap="round" />
	<path d="M 73.909 59.534 c -0.269 0 -0.537 -0.108 -0.734 -0.321 c -0.375 -0.405 -0.35 -1.038 0.056 -1.413 l 4.551 -4.208 c 0.404 -0.375 1.037 -0.351 1.413 0.056 c 0.375 0.405 0.35 1.038 -0.056 1.413 l -4.551 4.208 C 74.396 59.446 74.152 59.534 73.909 59.534 z" style="stroke: none; stroke-width: 1; stroke-dasharray: none; stroke-linecap: butt; stroke-linejoin: miter; stroke-miterlimit: 10; fill: #709D31; fill-rule: nonzero; opacity: 1;" transform=" matrix(1 0 0 1 0 0) " stroke-linecap="round" />
	<path d="M 73.909 66.002 c -0.243 0 -0.486 -0.088 -0.679 -0.266 l -6.354 -5.877 c -0.405 -0.375 -0.431 -1.008 -0.056 -1.413 c 0.375 -0.406 1.008 -0.431 1.413 -0.056 l 6.354 5.877 c 0.405 0.375 0.431 1.008 0.056 1.413 C 74.446 65.894 74.178 66.002 73.909 66.002 z" style="stroke: none; stroke-width: 1; stroke-dasharray: none; stroke-linecap: butt; stroke-linejoin: miter; stroke-miterlimit: 10; fill: #709D31; fill-rule: nonzero; opacity: 1;" transform=" matrix(1 0 0 1 0 0) " stroke-linecap="round" />
	<path d="M 18.329 82.638 c -0.552 0 -1 -0.447 -1 -1 v -28.94 c 0 -0.553 0.448 -1 1 -1 s 1 0.447 1 1 v 28.94 C 19.329 82.19 18.881 82.638 18.329 82.638 z" style="stroke: none; stroke-width: 1; stroke-dasharray: none; stroke-linecap: butt; stroke-linejoin: miter; stroke-miterlimit: 10; fill: #709D31; fill-rule: nonzero; opacity: 1;" transform=" matrix(1 0 0 1 0 0) " stroke-linecap="round" />
	<path d="M 18.329 60.408 c -0.269 0 -0.537 -0.107 -0.734 -0.321 c -0.375 -0.405 -0.351 -1.038 0.055 -1.413 l 4.565 -4.223 c 0.405 -0.374 1.038 -0.353 1.413 0.056 c 0.375 0.405 0.351 1.038 -0.055 1.413 l -4.565 4.223 C 18.816 60.32 18.572 60.408 18.329 60.408 z" style="stroke: none; stroke-width: 1; stroke-dasharray: none; stroke-linecap: butt; stroke-linejoin: miter; stroke-miterlimit: 10; fill: #709D31; fill-rule: nonzero; opacity: 1;" transform=" matrix(1 0 0 1 0 0) " stroke-linecap="round" />
	<path d="M 18.329 66.896 c -0.243 0 -0.487 -0.088 -0.679 -0.266 l -6.375 -5.896 c -0.405 -0.375 -0.43 -1.008 -0.055 -1.413 c 0.375 -0.406 1.008 -0.431 1.413 -0.056 l 6.375 5.896 c 0.405 0.375 0.43 1.008 0.055 1.413 C 18.866 66.788 18.598 66.896 18.329 66.896 z" style="stroke: none; stroke-width: 1; stroke-dasharray: none; stroke-linecap: butt; stroke-linejoin: miter; stroke-miterlimit: 10; fill: #709D31; fill-rule: nonzero; opacity: 1;" transform=" matrix(1 0 0 1 0 0) " stroke-linecap="round" />
	<path d="M 30.014 73.402 H 6.583 C 2.953 73.402 0 70.449 0 66.819 c 0 -2.292 1.202 -4.406 3.123 -5.596 c -0.163 -0.747 -0.245 -1.506 -0.245 -2.267 c 0 -3.561 1.808 -6.905 4.758 -8.879 c -0.013 -0.207 -0.019 -0.405 -0.019 -0.6 c 0 -5.89 4.792 -10.682 10.681 -10.682 c 2.961 0 5.815 1.246 7.831 3.417 c 0.376 0.405 0.352 1.038 -0.053 1.413 c -0.404 0.375 -1.038 0.353 -1.413 -0.053 c -1.639 -1.765 -3.958 -2.777 -6.365 -2.777 c -4.787 0 -8.681 3.895 -8.681 8.682 c 0 0.341 0.025 0.676 0.063 1.007 c 0.046 0.394 -0.146 0.777 -0.488 0.978 c -2.661 1.556 -4.314 4.427 -4.314 7.494 c 0 0.839 0.124 1.677 0.367 2.49 c 0.144 0.48 -0.09 0.992 -0.546 1.198 C 3.06 63.387 2 65.025 2 66.819 c 0 2.527 2.056 4.583 4.583 4.583 h 23.432 c 2.527 0 4.583 -2.056 4.583 -4.583 c 0 -0.898 -0.26 -1.768 -0.752 -2.513 c -0.304 -0.461 -0.177 -1.081 0.284 -1.386 c 0.461 -0.302 1.083 -0.176 1.385 0.284 c 0.708 1.073 1.083 2.323 1.083 3.614 C 36.597 70.449 33.644 73.402 30.014 73.402 z" style="stroke: none; stroke-width: 1; stroke-dasharray: none; stroke-linecap: butt; stroke-linejoin: miter; stroke-miterlimit: 10; fill:#709D31; fill-rule: nonzero; opacity: 1;" transform=" matrix(1 0 0 1 0 0) " stroke-linecap="round" />
	<path d="M 89 82.638 H 1 c -0.552 0 -1 -0.447 -1 -1 s 0.448 -1 1 -1 h 88 c 0.553 0 1 0.447 1 1 S 89.553 82.638 89 82.638 z" style="stroke: none; stroke-width: 1; stroke-dasharray: none; stroke-linecap: butt; stroke-linejoin: miter; stroke-miterlimit: 10; fill: #709D31; fill-rule: nonzero; opacity: 1;" transform=" matrix(1 0 0 1 0 0) " stroke-linecap="round" />
</g>
</svg>