<svg width="188" height="96" viewBox="0 0 188 96" fill="none" xmlns="http://www.w3.org/2000/svg">
<path d="M2.57728 87.1627V64.4357H17.625V68.3974H7.38233V73.8128H16.6262V77.7745H7.38233V87.1627H2.57728ZM20.857 87.1627V64.4357H25.6621V83.201H35.4054V87.1627H20.857ZM58.5873 75.7992C58.5873 78.2776 58.1175 80.386 57.1779 82.1246C56.2458 83.8631 54.9733 85.1911 53.3605 86.1084C51.7551 87.0184 49.95 87.4734 47.9451 87.4734C45.9254 87.4734 44.1129 87.0147 42.5075 86.0973C40.9021 85.18 39.6334 83.852 38.7012 82.1135C37.769 80.3749 37.303 78.2702 37.303 75.7992C37.303 73.3208 37.769 71.2124 38.7012 69.4738C39.6334 67.7353 40.9021 66.411 42.5075 65.5011C44.1129 64.5837 45.9254 64.125 47.9451 64.125C49.95 64.125 51.7551 64.5837 53.3605 65.5011C54.9733 66.411 56.2458 67.7353 57.1779 69.4738C58.1175 71.2124 58.5873 73.3208 58.5873 75.7992ZM53.7156 75.7992C53.7156 74.1938 53.4752 72.84 52.9943 71.7377C52.5208 70.6353 51.8513 69.7994 50.9857 69.2297C50.1201 68.66 49.1066 68.3752 47.9451 68.3752C46.7836 68.3752 45.7701 68.66 44.9045 69.2297C44.0389 69.7994 43.3657 70.6353 42.8848 71.7377C42.4113 72.84 42.1746 74.1938 42.1746 75.7992C42.1746 77.4046 42.4113 78.7584 42.8848 79.8607C43.3657 80.9631 44.0389 81.799 44.9045 82.3687C45.7701 82.9384 46.7836 83.2232 47.9451 83.2232C49.1066 83.2232 50.1201 82.9384 50.9857 82.3687C51.8513 81.799 52.5208 80.9631 52.9943 79.8607C53.4752 78.7584 53.7156 77.4046 53.7156 75.7992ZM62.1467 87.1627V64.4357H71.1131C72.8295 64.4357 74.2943 64.7428 75.5076 65.3568C76.7283 65.9634 77.6567 66.8253 78.293 67.9424C78.9366 69.0521 79.2584 70.3579 79.2584 71.8597C79.2584 73.3689 78.9329 74.6673 78.2819 75.7548C77.6309 76.8349 76.6876 77.6635 75.4521 78.2406C74.224 78.8176 72.737 79.1061 70.9911 79.1061H64.9875V75.2443H70.2143C71.1316 75.2443 71.8936 75.1186 72.5003 74.867C73.1069 74.6155 73.5582 74.2382 73.8541 73.7351C74.1575 73.2321 74.3091 72.6069 74.3091 71.8597C74.3091 71.1051 74.1575 70.4689 73.8541 69.951C73.5582 69.4331 73.1032 69.041 72.4892 68.7747C71.8825 68.501 71.1168 68.3641 70.1921 68.3641H66.9517V87.1627H62.1467ZM74.4201 76.8201L80.0685 87.1627H74.7641L69.2377 76.8201H74.4201ZM86.5714 87.1627H81.4224L89.268 64.4357H95.4602L103.295 87.1627H98.1457L92.4529 69.6292H92.2754L86.5714 87.1627ZM86.2496 78.2295H98.4121V81.9803H86.2496V78.2295ZM127.356 74.978L123.028 75.2443C122.954 74.8744 122.795 74.5415 122.551 74.2456C122.307 73.9423 121.985 73.7018 121.586 73.5243C121.194 73.3393 120.724 73.2469 120.176 73.2469C119.444 73.2469 118.826 73.4022 118.323 73.7129C117.82 74.0163 117.568 74.4232 117.568 74.9336C117.568 75.3405 117.731 75.6845 118.057 75.9657C118.382 76.2468 118.941 76.4724 119.732 76.6426L122.817 77.264C124.475 77.6043 125.71 78.1518 126.524 78.9064C127.338 79.661 127.745 80.6523 127.745 81.8804C127.745 82.9975 127.415 83.9778 126.757 84.8212C126.106 85.6645 125.211 86.323 124.071 86.7965C122.939 87.2625 121.634 87.4956 120.154 87.4956C117.898 87.4956 116.1 87.0258 114.761 86.0862C113.429 85.1393 112.649 83.852 112.419 82.2244L117.069 81.9803C117.21 82.6683 117.55 83.1936 118.09 83.5561C118.63 83.9112 119.322 84.0888 120.165 84.0888C120.994 84.0888 121.66 83.9297 122.163 83.6116C122.673 83.2861 122.932 82.8681 122.939 82.3576C122.932 81.9285 122.751 81.5771 122.396 81.3034C122.041 81.0222 121.493 80.8077 120.753 80.6597L117.802 80.0716C116.137 79.7387 114.898 79.1616 114.084 78.3404C113.278 77.5193 112.874 76.4724 112.874 75.2C112.874 74.105 113.17 73.1618 113.762 72.3702C114.361 71.5786 115.201 70.9683 116.281 70.5392C117.369 70.1101 118.641 69.8955 120.099 69.8955C122.251 69.8955 123.946 70.3505 125.181 71.2605C126.424 72.1704 127.149 73.4096 127.356 74.978ZM133.485 87.4512C132.752 87.4512 132.123 87.1923 131.598 86.6744C131.08 86.1491 130.821 85.5203 130.821 84.7879C130.821 84.0629 131.08 83.4414 131.598 82.9236C132.123 82.4057 132.752 82.1468 133.485 82.1468C134.195 82.1468 134.816 82.4057 135.349 82.9236C135.882 83.4414 136.148 84.0629 136.148 84.7879C136.148 85.2761 136.022 85.7237 135.771 86.1306C135.526 86.5301 135.205 86.8519 134.805 87.0961C134.406 87.3328 133.965 87.4512 133.485 87.4512ZM140.029 87.1627V70.1175H144.612V73.0915H144.79C145.1 72.0336 145.622 71.2346 146.354 70.6945C147.087 70.1471 147.93 69.8733 148.885 69.8733C149.121 69.8733 149.377 69.8881 149.65 69.9177C149.924 69.9473 150.164 69.988 150.372 70.0398V74.2345C150.15 74.1679 149.843 74.1087 149.451 74.057C149.058 74.0052 148.7 73.9793 148.374 73.9793C147.679 73.9793 147.057 74.1309 146.51 74.4343C145.97 74.7302 145.541 75.1445 145.223 75.6771C144.912 76.2098 144.756 76.8238 144.756 77.5193V87.1627H140.029ZM153.626 87.4512C152.893 87.4512 152.265 87.1923 151.739 86.6744C151.221 86.1491 150.963 85.5203 150.963 84.7879C150.963 84.0629 151.221 83.4414 151.739 82.9236C152.265 82.4057 152.893 82.1468 153.626 82.1468C154.336 82.1468 154.957 82.4057 155.49 82.9236C156.023 83.4414 156.289 84.0629 156.289 84.7879C156.289 85.2761 156.163 85.7237 155.912 86.1306C155.668 86.5301 155.346 86.8519 154.946 87.0961C154.547 87.3328 154.107 87.4512 153.626 87.4512ZM167.872 87.4956C166.148 87.4956 164.657 87.1294 163.4 86.397C162.149 85.6571 161.184 84.6288 160.503 83.312C159.823 81.9877 159.482 80.4526 159.482 78.7066C159.482 76.9459 159.823 75.4071 160.503 74.0902C161.184 72.766 162.149 71.7377 163.4 71.0052C164.657 70.2654 166.148 69.8955 167.872 69.8955C169.596 69.8955 171.083 70.2654 172.333 71.0052C173.59 71.7377 174.56 72.766 175.24 74.0902C175.921 75.4071 176.261 76.9459 176.261 78.7066C176.261 80.4526 175.921 81.9877 175.24 83.312C174.56 84.6288 173.59 85.6571 172.333 86.397C171.083 87.1294 169.596 87.4956 167.872 87.4956ZM167.894 83.8335C168.678 83.8335 169.333 83.6116 169.858 83.1677C170.383 82.7164 170.779 82.1024 171.046 81.3256C171.319 80.5488 171.456 79.6647 171.456 78.6734C171.456 77.682 171.319 76.7979 171.046 76.0211C170.779 75.2443 170.383 74.6303 169.858 74.179C169.333 73.7277 168.678 73.5021 167.894 73.5021C167.102 73.5021 166.437 73.7277 165.896 74.179C165.364 74.6303 164.961 75.2443 164.687 76.0211C164.421 76.7979 164.287 77.682 164.287 78.6734C164.287 79.6647 164.421 80.5488 164.687 81.3256C164.961 82.1024 165.364 82.7164 165.896 83.1677C166.437 83.6116 167.102 83.8335 167.894 83.8335ZM182.098 87.4512C181.366 87.4512 180.737 87.1923 180.212 86.6744C179.694 86.1491 179.435 85.5203 179.435 84.7879C179.435 84.0629 179.694 83.4414 180.212 82.9236C180.737 82.4057 181.366 82.1468 182.098 82.1468C182.809 82.1468 183.43 82.4057 183.963 82.9236C184.495 83.4414 184.762 84.0629 184.762 84.7879C184.762 85.2761 184.636 85.7237 184.384 86.1306C184.14 86.5301 183.818 86.8519 183.419 87.0961C183.019 87.3328 182.579 87.4512 182.098 87.4512Z" fill="#CC0000"/>
<path d="M40.0662 25.7284V32.3864H47.9568V25.7284H40.0662ZM3.22681 27.208V61.7291H10.8218V47.8715H24.8273V61.7291H32.4222V27.208H24.8273V40.8685H10.8218V27.208H3.22681ZM53.1346 27.208V34.211H63.6391V61.7291H71.2336V34.211H76.4316C77.4384 32.67 79.1581 31.1326 81.738 29.5613V27.208H53.1346ZM40.2634 35.2958V61.7291H47.7596V35.2958H40.2634Z" fill="#24211C"/>
<path d="M95.2424 0.918945C87.3268 0.924956 79.5446 2.95818 72.6376 6.82481C65.7306 10.6915 59.9289 16.2626 55.7857 23.0074C60.1863 17.5165 65.7643 13.0845 72.1077 10.0387C78.4511 6.99301 85.3978 5.41141 92.4344 5.41078C98.6028 5.41075 104.711 6.62567 110.41 8.98618C116.109 11.3467 121.287 14.8066 125.648 19.1682C130.01 23.5299 133.47 28.708 135.831 34.4069C138.191 40.1057 139.406 46.2137 139.406 52.3821C139.395 57.6502 138.498 62.8788 136.752 67.8492C139.928 61.4532 141.584 54.4095 141.59 47.268C141.59 41.1815 140.391 35.1545 138.062 29.5312C135.733 23.908 132.319 18.7985 128.015 14.4946C123.712 10.1907 118.602 6.7766 112.979 4.44728C107.356 2.11797 101.329 0.919042 95.2424 0.918945ZM94.9298 16.5584C93.8909 16.5584 92.7442 16.8747 91.3133 17.4106C89.8825 17.9464 88.2617 18.7257 86.7126 19.7547C83.8467 21.6584 81.1109 24.5598 80.9366 28.3391C77.5698 30.3969 75.3958 32.4829 74.4067 34.8419C73.4907 37.0266 73.7503 39.3103 74.6604 41.4793C71.9311 44.3494 70.6775 48.9639 72.1593 52.7953C72.9709 54.8937 74.7924 56.6795 77.4666 57.347C80.0022 57.9799 83.2524 57.6766 87.3545 56.2854C87.9125 56.5685 88.7071 56.8888 89.8403 56.9535C90.9511 57.0169 92.2772 56.7215 93.58 55.8888C93.1226 60.4178 91.0724 61.7291 91.0724 61.7291H94.9298H98.7872C98.7872 61.7291 96.737 60.4178 96.2796 55.8888C97.5825 56.7215 98.9086 57.0169 100.019 56.9535C101.153 56.8888 101.947 56.5685 102.505 56.2854C106.607 57.6766 109.857 57.9799 112.393 57.347C115.067 56.6795 116.889 54.8937 117.7 52.7953C119.182 48.9639 117.929 44.3494 115.199 41.4793C116.109 39.3103 116.369 37.0267 115.453 34.8419C114.464 32.4829 112.29 30.3969 108.923 28.3391C108.749 24.5598 106.013 21.6584 103.147 19.7547C101.598 18.7257 99.9772 17.9464 98.5463 17.4106C97.1154 16.8747 95.9688 16.5584 94.9298 16.5584ZM94.9298 19.5194C95.1617 19.5194 96.2763 19.7229 97.5078 20.1841C98.7394 20.6453 100.182 21.3404 101.509 22.2216C104.162 23.9841 106.175 26.3365 105.993 29.0654C105.974 29.3413 106.033 29.6167 106.163 29.8607C106.293 30.1047 106.489 30.3073 106.728 30.4458C110.245 32.4805 112.041 34.3637 112.721 35.987C113.402 37.6103 113.185 39.1434 112.136 41.1326C111.978 41.4323 111.928 41.7771 111.994 42.1094C112.059 42.4418 112.237 42.7416 112.497 42.9589C114.631 44.7425 115.96 49.0867 114.939 51.7271C114.428 53.0472 113.524 54.0125 111.676 54.4738C109.828 54.9352 106.943 54.7733 102.859 53.2998C102.635 53.219 102.395 53.1934 102.16 53.2251C101.924 53.2567 101.699 53.3448 101.504 53.4817C101.504 53.4817 100.833 53.9407 99.8506 53.9968C99.1297 54.038 98.2756 53.9301 97.2818 53.0231C97.4704 52.6678 97.6391 52.3322 97.7299 52.0926C98.8172 49.2232 103.076 46.3534 103.439 46.2326C103.801 46.1118 107.033 45.5982 107.033 45.5982C107.033 45.5982 103.681 44.9638 103.741 44.4806C103.801 43.9973 105.009 37.4129 105.009 37.4129C105.009 37.4129 102.653 43.6953 102.351 44.4806C102.049 45.2659 97.2769 50.0987 96.552 49.7966C95.8271 49.4946 94.9298 32.0968 94.9298 32.0968C94.9298 32.0968 94.0325 49.4946 93.3076 49.7966C92.5828 50.0987 87.8105 45.2659 87.5084 44.4806C87.2064 43.6953 84.8504 37.4129 84.8504 37.4129C84.8504 37.4129 86.0585 43.9973 86.1188 44.4806C86.1789 44.9638 82.8268 45.5982 82.8268 45.5982C82.8268 45.5982 86.0586 46.1118 86.421 46.2326C86.7835 46.3534 91.0423 49.2232 92.1297 52.0926C92.2205 52.3323 92.3887 52.6681 92.5774 53.0235C91.5838 53.9302 90.7298 54.038 90.009 53.9968C89.0268 53.9407 88.3554 53.4817 88.3554 53.4817C88.1607 53.3448 87.936 53.2567 87.7001 53.2251C87.4642 53.1934 87.2242 53.219 87.0003 53.2998C82.9167 54.7733 80.0321 54.9352 78.1837 54.4738C76.3352 54.0125 75.432 53.0472 74.9214 51.7271C73.9002 49.0867 75.2291 44.7425 77.363 42.9589C77.623 42.7416 77.8006 42.4417 77.8661 42.1092C77.9317 41.7768 77.8813 41.4319 77.7233 41.1321C76.6744 39.1429 76.4576 37.6103 77.1382 35.987C77.8188 34.3637 79.6144 32.4805 83.1311 30.4458C83.3704 30.3073 83.5662 30.1047 83.6962 29.8607C83.8263 29.6167 83.8854 29.3413 83.867 29.0654C83.6845 26.3365 85.6977 23.9841 88.351 22.2216C89.6776 21.3404 91.1202 20.6453 92.3518 20.1841C93.5833 19.7229 94.698 19.5194 94.9298 19.5194Z" fill="#84C341"/>
</svg>
