<svg xmlns="http://www.w3.org/2000/svg" xmlns:xlink="http://www.w3.org/1999/xlink" version="1.1" width="256" height="256" viewBox="0 0 256 256"  xml:space="preserve">

<defs>
</defs>
<g style="stroke: none; stroke-width: 0; stroke-dasharray: none; stroke-linecap: butt; stroke-linejoin: miter; stroke-miterlimit: 10; fill: none; fill-rule: nonzero; opacity: 1;" transform="translate(1.4065934065934016 1.4065934065934016) scale(2.81 2.81)" >
	<path d="M 89.768 58.694 c -0.775 -2.537 -3.332 -4.101 -5.937 -3.636 c -2.398 0.427 -4.958 1.025 -7.62 1.693 c -1.526 -8.65 -12.204 -16.298 -23.49 -16.729 v -6.538 c 0.048 -0.476 0.044 -0.96 0 -1.451 V 28.18 c 1.386 0.719 3.055 1.083 4.884 1.083 c 2.897 0 6.181 -0.897  9.302 -2.673 c 5.894 -3.355 9.389 -8.808 8.495 -13.258 c -0.042 -0.21 -0.151 -0.402 -0.311 -0.545 c -3.369 -3.041 -9.841 -2.823 -15.737 0.531 c -4.808 2.736 -8.016 6.864 -8.553 10.709 c -0.051 0.12 -0.08 0.252 -0.08 0.391 v 2.416 c -1.504 -2.228 -3.767 -4.316 -6.59 -5.923 c -5.896 -3.355 -12.368 -3.573 -15.738 -0.531 c -0.16 0.144 -0.268 0.335 -0.311 0.545 c -0.894 4.451 2.6 9.903 8.496 13.258 c 3.121 1.776 6.403 2.673 9.301 2.673 c 1.81 0 3.464 -0.358 4.842 -1.063 v 4.234 c -7.058 0.272 -14.184 3.399 -18.889 8.319 c -3.879 0.319 -8.337 1.581 -13.25 5.875 c -0.497 0.434 -1.111 0.68 -1.724 0.666 l -1.331 -0.061 v -0.162 c 0 -2.356 -1.917 -4.273 -4.273 -4.273 H 1 c -0.552 0 -1 0.447 -1 1 v 26.95 c 0 0.553 0.448 1 1 1 h 10.254 c 2.356 0 4.273 -1.917 4.273 -4.273 v -0.667 h 4.814 c 1.61 0 3.225 0.178 4.798 0.528 l 14.401 3.211 c 1.29 0.288 2.61 0.434 3.931 0.434 c 0.087 0 0.175 -0.001 0.263 -0.002 l 7.97 -0.116 c 2.377 -0.034 4.688 -0.528 6.866 -1.465 l 28.248 -11.929 C 89.287 64 90.554 61.263 89.768 58.694 z M 60.343 15.057 c 4.918 -2.799 10.37 -3.194 13.153 -1 c 0.464 3.514 -2.66 7.997 -7.578 10.796 c -4.922 2.799 -10.371 3.195 -13.153 1 c -0.027 -0.206 -0.04 -0.417 -0.043 -0.629 v -0.093 C 52.73 21.743 55.755 17.668 60.343 15.057 z M 74.27 57.24 c -1.132 0.292 -2.281 0.594 -3.448 0.901 c -2.416 0.636 -4.899 1.285 -7.361 1.877 c -0.887 -4.06 -4.431 -7.098 -8.679 -7.241 l -1.914 -0.064 c -2.956 0 -6.166 -1.138 -9.269 -2.238 c -2.933 -1.04 -5.958 -2.102 -8.792 -2.205 c 4.52 -3.908 10.791 -6.269 16.914 -6.269 C 62.337 42.001 72.975 49.295 74.27 57.24 z M 50.721 33.445 c -2.782 2.196 -8.234 1.799 -13.152 -1 c -4.919 -2.799 -8.043 -7.282 -7.579 -10.796 c 2.783 -2.194 8.233 -1.799 13.153 1 c 4.281 2.436 7.199 6.146 7.579 9.384 v 1.398 C 50.721 33.436 50.721 33.441 50.721 33.445 z M 13.528 75.068 c 0 1.254 -1.02 2.273 -2.273 2.273 H 2 v -24.95 h 9.254 c 1.253 0 2.273 1.02 2.273 2.273 V 75.068 z M 86.035 63.223 L 57.787 75.151 c -1.941 0.835 -3.998 1.274 -6.111 1.305 l -7.97 0.116 c -1.253 0.012 -2.507 -0.111 -3.729 -0.383 l -14.401 -3.211 c -1.716 -0.383 -3.477 -0.577 -5.233 -0.577 h -4.814 V 56.829 l 1.277 0.058 c 1.116 0.011 2.227 -0.403 3.093 -1.159 c 5.523 -4.827 10.414 -5.478 14.47 -5.478 c 2.615 0 5.504 1.024 8.563 2.109 c 3.263 1.157 6.635 2.354 9.901 2.353 c 0.001 0 0.002 0 0.002 0 l 1.88 0.063 c 3.336 0.113 6.118 2.505 6.802 5.698 c -8.467 1.918 -16.393 2.852 -20.052 -0.505 c -0.407 -0.373 -1.04 -0.345 -1.413 0.062 c -0.374 0.407 -0.346 1.039 0.061 1.413 c 5.799 5.32 18.723 1.921 31.22 -1.367 c 4.603 -1.211 8.952 -2.354 12.85 -3.049 c 1.618 -0.289 3.195 0.68 3.676 2.252 C 88.343 60.871 87.557 62.567 86.035 63.223 z" style="stroke: none; stroke-width: 1; stroke-dasharray: none; stroke-linecap: butt; stroke-linejoin: miter; stroke-miterlimit: 10; fill: #337858; fill-rule: nonzero; opacity: 1;" transform=" matrix(1 0 0 1 0 0) " stroke-linecap="round" />
</g>
</svg>