<?xml version="1.0" encoding="UTF-8"?>
<svg id="Layer_2" data-name="Layer 2" xmlns="http://www.w3.org/2000/svg" viewBox="0 0 100 100">
  <defs>
    <style>
      .cls-1 {
        fill: #337858;
        stroke-width: 0px;
      }
    </style>
  </defs>
  <path class="cls-1" d="M58.88,44.76c3.8,0,8.12-.72,11.68-3.24,8.21-5.8,8.8-18.61,8.83-19.15.03-.68-.41-1.29-1.05-1.49-.52-.16-12.79-3.89-21,1.91-3.93,2.78-6.12,7.16-7.33,11.04-1.21-3.88-3.39-8.26-7.33-11.04-8.21-5.8-20.48-2.07-21-1.91-.65.2-1.08.81-1.05,1.49.02.54.62,13.35,8.83,19.15,3.56,2.51,7.88,3.24,11.68,3.24,3,0,5.67-.45,7.38-.83v14.79c-9.27.47-17.75,5.29-22.92,13.11-1.13,1.71-1.22,3.81-.24,5.63.99,1.83,2.88,2.97,4.95,2.97h39.41c2.07,0,3.97-1.14,4.95-2.97.98-1.82.89-3.92-.24-5.63-5.16-7.82-13.65-12.64-22.92-13.11v-14.79c1.71.38,4.37.83,7.38.83ZM59.06,25.24c5.67-4,14.16-2.52,17.23-1.8-.34,3.13-1.77,11.61-7.46,15.63-4.8,3.39-11.6,2.85-15.44,2.16l9.99-7.9c.65-.51.76-1.46.25-2.11-.52-.65-1.46-.76-2.11-.25l-9.58,7.57c.71-3.9,2.53-10.07,7.12-13.31ZM31.18,39.08c-5.67-4-7.11-12.5-7.46-15.63,3.07-.72,11.55-2.21,17.22,1.8,4.59,3.24,6.41,9.41,7.12,13.31l-9.58-7.57c-.65-.51-1.59-.4-2.11.25-.51.65-.4,1.59.25,2.11l9.99,7.9c-3.84.68-10.64,1.22-15.44-2.16ZM71.91,73.49c.51.77.55,1.73.1,2.56-.47.87-1.33,1.39-2.31,1.39H30.3c-.98,0-1.84-.52-2.31-1.39-.45-.83-.41-1.79.1-2.56,4.89-7.39,13.08-11.81,21.91-11.81s17.03,4.41,21.91,11.81Z"/>
</svg>