<?xml version="1.0" encoding="UTF-8"?>
<svg id="Layer_2" data-name="Layer 2" xmlns="http://www.w3.org/2000/svg" viewBox="0 0 100 100">
  <defs>
    <style>
      .cls-1 {
        fill: #337858;
        stroke-width: 0px;
      }
    </style>
  </defs>
  <path class="cls-1" d="M83.84,40.47h-14.2v-7.96c.95.17,2.15.32,3.49.32,2.25,0,4.83-.43,6.96-1.94,4.88-3.45,5.23-10.97,5.25-11.29.03-.68-.41-1.29-1.05-1.49-.31-.09-7.51-2.28-12.4,1.17-1.79,1.26-2.97,3.08-3.75,4.88-.78-1.8-1.96-3.62-3.75-4.88-4.88-3.45-12.09-1.26-12.4-1.17-.65.2-1.08.81-1.05,1.49.01.32.36,7.84,5.25,11.29,2.13,1.51,4.71,1.94,6.96,1.94,1.34,0,2.54-.15,3.49-.32v7.96h-33.29v-7.96c.95.17,2.15.32,3.49.32,2.25,0,4.83-.43,6.96-1.94,4.88-3.45,5.23-10.97,5.25-11.29.03-.68-.41-1.29-1.05-1.49-.3-.09-7.51-2.28-12.4,1.17-1.79,1.26-2.97,3.08-3.75,4.88-.78-1.8-1.96-3.62-3.75-4.88-4.88-3.45-12.09-1.26-12.4-1.17-.65.2-1.08.81-1.05,1.49.01.32.36,7.84,5.25,11.29,2.13,1.51,4.71,1.94,6.96,1.94,1.34,0,2.54-.15,3.49-.32v7.96h-14.2c-.83,0-1.5.67-1.5,1.5v9.28c0,.83.67,1.5,1.5,1.5h2.17v17.63h-2.17c-.83,0-1.5.67-1.5,1.5v9.28c0,.83.67,1.5,1.5,1.5h67.68c.83,0,1.5-.67,1.5-1.5v-9.28c0-.83-.67-1.5-1.5-1.5h-2.17v-17.63h2.17c.83,0,1.5-.67,1.5-1.5v-9.28c0-.83-.67-1.5-1.5-1.5ZM73.62,21.73c2.69-1.9,6.65-1.43,8.6-1.03-.32,2.24-1.34,5.97-3.86,7.75-2.68,1.89-6.64,1.43-8.59,1.04.28-1.97,1.17-5.86,3.85-7.75ZM57.93,28.44c-2.68-1.89-3.57-5.78-3.85-7.75,1.96-.39,5.91-.86,8.59,1.04,2.68,1.89,3.57,5.78,3.85,7.75-1.96.39-5.91.86-8.59-1.04ZM37.33,21.73c2.69-1.9,6.65-1.43,8.6-1.03-.32,2.24-1.34,5.97-3.86,7.75-2.69,1.9-6.65,1.43-8.6,1.03.32-2.24,1.34-5.97,3.86-7.75ZM21.64,28.44c-2.68-1.89-3.57-5.78-3.85-7.75,1.96-.39,5.91-.86,8.59,1.04,2.68,1.89,3.57,5.78,3.85,7.75-1.95.39-5.91.86-8.59-1.04ZM82.34,79.66H17.66v-6.28h64.68v6.28ZM78.68,70.38H21.32v-17.63h57.35v17.63ZM82.34,49.75H17.66v-6.28h64.68v6.28Z"/>
</svg>