<?xml version="1.0" encoding="UTF-8"?>
<svg id="Layer_2" data-name="Layer 2" xmlns="http://www.w3.org/2000/svg" viewBox="0 0 100 100">
  <defs>
    <style>
      .cls-1 {
        fill: #337858;
        stroke-width: 0px;
      }
    </style>
  </defs>
  <path class="cls-1" d="M59.93,30.96v-2.8h.15c.25,0,.5.07.71.2l4.93,3c.24.15.51.22.78.22.34,0,.69-.12.96-.35.49-.41.67-1.09.44-1.69l-3.33-8.62c-1.45-3.75-5.12-6.27-9.14-6.27h-17.4c-.83,0-1.5.67-1.5,1.5v1.6h-2.38c-.83,0-1.5.67-1.5,1.5s.67,1.5,1.5,1.5h2.38v1.14c0,.83.67,1.5,1.5,1.5h4.58c-1.83,1.57-4.48,3.37-7.33,3.73-.82.1-1.41.85-1.3,1.67.09.76.74,1.31,1.49,1.31.06,0,.12,0,.19-.01,3.75-.47,7.07-2.8,9.22-4.69l.05,1.3c.03.74.59,1.34,1.31,1.43v2.33c-.72.11-1.26.73-1.26,1.48v7.25c0,1.49-.56,2.91-1.59,3.99l-10.11,10.67c-.97,1.02-1.51,2.37-1.51,3.78v22.23c0,3.03,2.46,5.49,5.49,5.49h25.43c2.99,0,5.4-2.34,5.49-5.32.27-9.46.04-33.13-8.03-48.76-.06-.11-.13-.21-.21-.3ZM56.93,30.45h-7.69v-2.28h7.69v2.28ZM39.54,17.66h15.9c2.79,0,5.33,1.75,6.34,4.35l1.74,4.5-1.17-.71c-.69-.42-1.47-.64-2.27-.64h-12.2l-.12-3.31s0-.03,0-.05c0-.05-.01-.1-.02-.15,0-.05-.01-.09-.03-.14-.01-.05-.03-.09-.05-.14-.02-.04-.03-.09-.05-.13-.02-.04-.05-.08-.07-.12-.03-.04-.05-.08-.08-.12-.03-.04-.06-.07-.09-.11-.03-.04-.07-.07-.11-.11-.02-.01-.03-.03-.04-.04-.02-.02-.04-.03-.07-.04-.04-.03-.08-.06-.13-.08-.04-.03-.09-.05-.13-.07-.04-.02-.08-.04-.13-.05-.05-.02-.1-.03-.15-.05-.04,0-.08-.02-.12-.02-.06,0-.11-.01-.17-.02-.02,0-.04,0-.06,0h-6.72v-2.74ZM65.17,79.93c-.04,1.35-1.13,2.41-2.49,2.41h-25.43c-1.37,0-2.49-1.12-2.49-2.49v-22.23c0-.64.24-1.25.68-1.71l10.11-10.67c1.56-1.64,2.41-3.79,2.41-6.05v-5.75h9.9c7.35,15.01,7.55,37.43,7.29,46.49Z"/>
</svg>