<?xml version="1.0" encoding="UTF-8"?>
<svg id="Layer_2" data-name="Layer 2" xmlns="http://www.w3.org/2000/svg" viewBox="0 0 100 100">
  <defs>
    <style>
      .cls-1 {
        fill: #337858;
        stroke-width: 0px;
      }
    </style>
  </defs>
  <path class="cls-1" d="M76.2,60.16c0-.83-.03-1.66-.11-2.5-1.06-10.93-9.06-20.15-19.65-22.82v-14.46h3.52c.83,0,1.5-.67,1.5-1.5s-.67-1.5-1.5-1.5h-19.9c-.83,0-1.5.67-1.5,1.5s.67,1.5,1.5,1.5h3.52v14.48c-11.53,2.91-19.78,13.4-19.78,25.41,0,.01,0,.02,0,.03,0,0,0,.01,0,.02.02,8.32,3.85,15.95,10.52,20.94,1.18.89,2.67,1.38,4.17,1.38h23.03c1.5,0,2.99-.49,4.18-1.38,6.68-5,10.48-12.68,10.5-20.92,0-.05,0-.1,0-.16ZM45.37,37.52c.7-.14,1.2-.76,1.2-1.47v-15.67h6.86v15.66c0,.71.5,1.33,1.2,1.47,9.9,1.99,17.49,10.4,18.46,20.44.05.5.08,1,.1,1.5-2.53,1.52-12.33,6.51-22.34-.42-9.8-6.78-19.44-3.6-23.89-1.43,1.15-9.84,8.52-18.07,18.4-20.07ZM63.9,78.84c-.68.51-1.52.78-2.38.78h-23.03c-.86,0-1.7-.28-2.37-.78-5.71-4.27-9.06-10.72-9.3-17.78,2.56-1.53,12.34-6.48,22.33.43,4.45,3.08,8.86,4.1,12.78,4.1,4.72,0,8.7-1.49,11.12-2.68-.72,6.29-3.95,12.03-9.15,15.93Z"/>
  <path class="cls-1" d="M58.88,56.73c2.63,0,4.76-2.14,4.76-4.76s-2.14-4.76-4.76-4.76-4.76,2.14-4.76,4.76,2.14,4.76,4.76,4.76ZM58.88,50.2c.97,0,1.76.79,1.76,1.76s-.79,1.76-1.76,1.76-1.76-.79-1.76-1.76.79-1.76,1.76-1.76Z"/>
  <path class="cls-1" d="M44.17,51.05c2.37,0,4.3-1.93,4.3-4.3s-1.93-4.3-4.3-4.3-4.3,1.93-4.3,4.3,1.93,4.3,4.3,4.3ZM44.17,45.46c.72,0,1.3.58,1.3,1.3s-.58,1.3-1.3,1.3-1.3-.58-1.3-1.3.58-1.3,1.3-1.3Z"/>
</svg>